<svg xmlns="http://www.w3.org/2000/svg" width="1200" height="471" viewBox="0 0 1200 471">
<rect width="100%" height="100%" fill="#fff"/>
<style>text{font-family:Arial,Helvetica,sans-serif;fill:#202a35}.title{font-size:25px;font-weight:700}.sub{font-size:15px;fill:#586575}.label{font-size:14px}.value{font-size:13px;font-weight:700}.axis{font-size:12px;fill:#586575}.grid{stroke:#e6eaf0;stroke-width:1}</style>
<text class="title" x="36" y="38">Localisation des offres par département</text>
<text class="sub" x="36" y="64">Top 10 des départements renseignés, plus non renseignés · n = 3 181 · 2026-09-29</text>
<line class="grid" x1="435.0" y1="85" x2="435.0" y2="432"/>
<text class="axis" text-anchor="middle" x="435.0" y="450">0</text>
<line class="grid" x1="572.0" y1="85" x2="572.0" y2="432"/>
<text class="axis" text-anchor="middle" x="572.0" y="450">79</text>
<line class="grid" x1="709.0" y1="85" x2="709.0" y2="432"/>
<text class="axis" text-anchor="middle" x="709.0" y="450">158</text>
<line class="grid" x1="846.0" y1="85" x2="846.0" y2="432"/>
<text class="axis" text-anchor="middle" x="846.0" y="450">237</text>
<line class="grid" x1="983.0" y1="85" x2="983.0" y2="432"/>
<text class="axis" text-anchor="middle" x="983.0" y="450">317</text>
<line class="grid" x1="1120.0" y1="85" x2="1120.0" y2="432"/>
<text class="axis" text-anchor="middle" x="1120.0" y="450">396</text>
<text class="label" text-anchor="end" x="423" y="108">Dép. 75</text>
<rect x="435" y="91" width="634.3" height="19" rx="3" fill="#235789"/>
<text class="value" x="1076.3" y="106">367</text>
<text class="label" text-anchor="end" x="423" y="139">Dép. 92</text>
<rect x="435" y="122" width="314.5" height="19" rx="3" fill="#f18f01"/>
<text class="value" x="756.5" y="137">182</text>
<text class="label" text-anchor="end" x="423" y="170">Dép. 69</text>
<rect x="435" y="153" width="240.2" height="19" rx="3" fill="#2e8b57"/>
<text class="value" x="682.2" y="168">139</text>
<text class="label" text-anchor="end" x="423" y="201">Dép. 59</text>
<rect x="435" y="184" width="188.4" height="19" rx="3" fill="#7b61a8"/>
<text class="value" x="630.4" y="199">109</text>
<text class="label" text-anchor="end" x="423" y="232">Dép. 44</text>
<rect x="435" y="215" width="174.6" height="19" rx="3" fill="#d1495b"/>
<text class="value" x="616.6" y="230">101</text>
<text class="label" text-anchor="end" x="423" y="263">Dép. 13</text>
<rect x="435" y="246" width="160.7" height="19" rx="3" fill="#168aad"/>
<text class="value" x="602.7" y="261">93</text>
<text class="label" text-anchor="end" x="423" y="294">Dép. 78</text>
<rect x="435" y="277" width="134.8" height="19" rx="3" fill="#7f5539"/>
<text class="value" x="576.8" y="292">78</text>
<text class="label" text-anchor="end" x="423" y="325">Dép. 94</text>
<rect x="435" y="308" width="126.2" height="19" rx="3" fill="#5b8e7d"/>
<text class="value" x="568.2" y="323">73</text>
<text class="label" text-anchor="end" x="423" y="356">Dép. 97</text>
<rect x="435" y="339" width="117.5" height="19" rx="3" fill="#a44a3f"/>
<text class="value" x="559.5" y="354">68</text>
<text class="label" text-anchor="end" x="423" y="387">Dép. 31</text>
<rect x="435" y="370" width="115.8" height="19" rx="3" fill="#577590"/>
<text class="value" x="557.8" y="385">67</text>
<text class="label" text-anchor="end" x="423" y="418">Département non renseigné</text>
<rect x="435" y="401" width="178.0" height="19" rx="3" fill="#bc6c25"/>
<text class="value" x="620.0" y="416">103</text>
<text class="axis" x="777.5" y="467" text-anchor="middle">Nombre d’offres</text>
</svg>